<svg width="300" height="300" viewBox="0 0 300 300" fill="none" xmlns="http://www.w3.org/2000/svg">
<g clip-path="url(#clip0_2931_90359)">
<path d="M156.8 143.324H159.483C159.737 143.325 159.988 143.275 160.223 143.18C160.458 143.084 160.671 142.943 160.851 142.766C161.03 142.588 161.173 142.378 161.27 142.146C161.367 141.914 161.417 141.665 161.417 141.414V121.769C161.417 121.262 161.213 120.776 160.85 120.418C160.487 120.06 159.995 119.859 159.483 119.859H156.8C156.288 119.859 155.797 120.061 155.435 120.419C155.073 120.777 154.869 121.262 154.868 121.769V141.414C154.868 141.921 155.072 142.407 155.434 142.765C155.796 143.123 156.288 143.324 156.8 143.324" fill="#EE0033"/>
<path d="M138.13 143.59C139.754 143.59 141.658 143.503 142.657 141.501L153.966 119.85H149.831C149.028 119.855 148.244 120.088 147.571 120.52C146.898 120.952 146.363 121.565 146.031 122.288L138.905 137.266C138.736 137.618 138.401 138.194 138.121 138.194C137.84 138.194 137.517 137.618 137.339 137.266L130.177 122.297C129.843 121.576 129.308 120.963 128.636 120.532C127.963 120.1 127.179 119.866 126.377 119.859H122.233L133.542 141.51C134.662 143.634 136.956 143.599 138.13 143.599" fill="#EE0033"/>
<path d="M281.282 143.324C281.794 143.324 282.285 143.123 282.648 142.765C283.01 142.407 283.213 141.921 283.213 141.414V139.325H281.59C280.416 139.325 277.968 139.28 276.498 138.308C274.594 137.066 274.763 134.852 274.763 133.258V116.248C274.763 115.74 274.559 115.254 274.196 114.895C273.833 114.536 273.341 114.335 272.828 114.335H270.148C269.635 114.335 269.143 114.536 268.78 114.895C268.417 115.254 268.213 115.74 268.213 116.248V135.646C268.213 138.612 269.279 140.337 271.18 141.578C273.027 142.772 275.155 143.303 279.127 143.303L281.282 143.324Z" fill="#EE0033"/>
<path d="M199.268 135.666C199.268 138.633 200.33 140.358 202.234 141.599C204.081 142.793 206.209 143.324 210.181 143.324H212.336C212.848 143.324 213.34 143.123 213.702 142.765C214.064 142.407 214.268 141.921 214.268 141.414V139.325H212.644C211.467 139.325 209.022 139.28 207.549 138.308C205.648 137.066 205.814 134.852 205.814 133.258V123.837H219.474V135.66C219.474 138.627 220.536 140.352 222.441 141.593C224.285 142.787 226.412 143.318 230.387 143.318H232.539C232.793 143.319 233.044 143.269 233.279 143.174C233.513 143.078 233.727 142.937 233.906 142.76C234.085 142.582 234.228 142.371 234.325 142.14C234.422 141.908 234.471 141.659 234.471 141.408V139.319H232.85C231.676 139.319 229.213 139.274 227.756 138.302C225.854 137.06 226.023 134.846 226.023 133.252V123.837H232.361C232.873 123.837 233.365 123.635 233.727 123.277C234.089 122.919 234.293 122.433 234.293 121.927V119.838H226.011V116.263C226.011 115.756 225.808 115.27 225.446 114.911C225.083 114.552 224.592 114.35 224.079 114.35H221.396C221.142 114.35 220.891 114.399 220.657 114.495C220.422 114.591 220.209 114.732 220.029 114.91C219.85 115.088 219.708 115.299 219.611 115.531C219.514 115.763 219.464 116.011 219.465 116.263V119.859H205.802V116.263C205.802 116.011 205.753 115.763 205.656 115.531C205.559 115.299 205.417 115.088 205.237 114.91C205.058 114.732 204.845 114.591 204.61 114.495C204.376 114.399 204.124 114.35 203.87 114.35H201.187C200.675 114.35 200.183 114.552 199.821 114.911C199.459 115.27 199.256 115.756 199.256 116.263V119.859H195.169V121.948C195.169 122.454 195.373 122.94 195.735 123.298C196.097 123.656 196.588 123.858 197.101 123.858H199.268V135.666Z" fill="#EE0033"/>
<path d="M192.326 132.432C193.554 131.459 193.723 130.086 193.723 128.892C193.723 125.926 192.996 123.001 189.528 121.276C186.785 119.904 183.19 119.784 179.731 119.784C176.934 119.784 171.884 119.784 168.649 121.999C165.413 124.213 165.112 127.418 165.112 131.814C165.112 134.912 165.281 138.144 167.224 140.358C169.687 143.103 173.261 143.324 176.279 143.324H190.817C191.071 143.325 191.322 143.276 191.557 143.18C191.791 143.084 192.004 142.943 192.184 142.766C192.363 142.588 192.505 142.378 192.602 142.146C192.699 141.914 192.749 141.665 192.748 141.414V139.325H178.262C175.847 139.325 173.113 139.06 172.274 136.535C172.013 135.477 171.881 134.392 171.881 133.303H189.121C190.295 133.303 191.414 133.127 192.311 132.408L192.326 132.432ZM185.484 129.334H176.17C173.804 129.334 171.884 130.405 171.884 131.721V129.334C171.939 127.785 171.884 126.499 173.227 125.305C175.017 123.712 177.706 123.756 179.439 123.756C181.286 123.756 183.413 123.846 185.037 124.819C185.598 125.139 186.067 125.596 186.4 126.146C186.733 126.696 186.918 127.321 186.939 127.961C186.939 128.582 186.773 129.334 185.484 129.334" fill="#EE0033"/>
<path d="M247.111 143.324H261.634C261.888 143.325 262.139 143.275 262.373 143.18C262.608 143.084 262.821 142.943 263.001 142.766C263.18 142.588 263.322 142.378 263.419 142.146C263.516 141.914 263.566 141.665 263.565 141.414V139.325H249.066C246.652 139.325 243.918 139.06 243.078 136.535C242.819 135.477 242.687 134.392 242.686 133.303H259.932C261.106 133.303 262.225 133.127 263.122 132.408C264.353 131.435 264.522 130.062 264.522 128.868C264.522 125.902 263.795 122.977 260.324 121.252C257.58 119.88 253.986 119.76 250.527 119.76C247.729 119.76 242.68 119.76 239.445 121.975C236.209 124.189 235.917 127.418 235.917 131.814C235.917 134.912 236.086 138.144 238.044 140.358C240.507 143.103 244.08 143.324 247.099 143.324H247.111ZM242.689 129.334C242.746 127.785 242.689 126.499 244.032 125.305C245.825 123.711 248.511 123.756 250.246 123.756C252.094 123.756 254.218 123.846 255.842 124.819C256.404 125.139 256.873 125.596 257.207 126.145C257.54 126.695 257.726 127.32 257.746 127.961C257.746 128.582 257.577 129.334 256.289 129.334H246.975C244.609 129.334 242.689 130.405 242.689 131.721V129.334Z" fill="#EE0033"/>
<path d="M158.143 117.644H159.483C159.996 117.644 160.488 117.443 160.851 117.084C161.214 116.725 161.417 116.239 161.417 115.731V115.203C161.417 114.952 161.367 114.703 161.27 114.472C161.173 114.24 161.03 114.029 160.851 113.852C160.671 113.674 160.458 113.534 160.223 113.438C159.988 113.342 159.737 113.293 159.483 113.293H156.803C156.549 113.293 156.297 113.342 156.063 113.438C155.828 113.534 155.615 113.674 155.435 113.852C155.255 114.029 155.113 114.24 155.016 114.472C154.918 114.703 154.868 114.952 154.868 115.203V119.859H154.901C155.086 118.775 156.332 117.644 158.149 117.644" fill="#EE0033"/>
<path d="M122.233 179.076V159.577C122.233 156.917 123.882 155.587 127.18 155.587H152.393C155.981 155.587 158.764 156.192 160.741 157.404C162.719 158.616 163.709 160.684 163.711 163.608V175.465C163.703 176.433 163.307 177.358 162.61 178.037C161.913 178.716 160.972 179.094 159.993 179.088H157.277V164.981C157.277 163.153 156.801 161.794 155.849 160.905C154.897 160.015 153.34 159.573 151.177 159.577H146.185V175.572C146.178 176.508 145.795 177.403 145.121 178.06C144.447 178.717 143.537 179.082 142.591 179.076H139.757V159.577H130.31C129.211 159.577 128.662 160.019 128.662 160.905V175.567C128.659 176.031 128.563 176.49 128.38 176.918C128.198 177.345 127.932 177.733 127.597 178.059C127.263 178.385 126.867 178.643 126.432 178.817C125.997 178.992 125.531 179.08 125.061 179.076H122.233Z" fill="black"/>
<path d="M200.439 179.076V159.577C200.439 156.917 202.087 155.587 205.382 155.587H215.599C219.186 155.587 221.97 156.192 223.95 157.404C225.93 158.616 226.919 160.684 226.916 163.608V179.076H220.488V164.981C220.488 163.153 220.012 161.794 219.06 160.905C218.109 160.015 216.552 159.573 214.391 159.577H208.515C207.412 159.577 206.862 160.019 206.864 160.905V179.076H200.439Z" fill="black"/>
<path d="M290.964 155.587L273.607 186.656H267.069L271.518 178.989L258.555 155.587H261.761C262.789 155.583 263.799 155.859 264.679 156.386C265.559 156.912 266.275 157.668 266.749 158.571L274.539 173.618L282.972 158.234C283.418 157.428 284.075 156.755 284.875 156.288C285.675 155.82 286.588 155.575 287.517 155.578L290.964 155.587Z" fill="black"/>
<path d="M197.565 167.464C197.565 172.016 196.348 175.163 193.913 176.903C191.479 178.644 187.529 179.516 182.064 179.518C176.608 179.518 172.662 178.646 170.227 176.903C167.793 175.161 166.577 172.014 166.581 167.464C166.581 162.972 167.809 159.854 170.264 158.111C172.718 156.368 176.652 155.497 182.064 155.497C187.485 155.497 191.423 156.368 193.877 158.111C196.332 159.854 197.558 162.972 197.556 167.464H197.565ZM173.221 167.464C173.221 170.389 173.88 172.464 175.198 173.689C176.516 174.915 178.805 175.529 182.064 175.531C185.324 175.531 187.613 174.917 188.931 173.689C190.248 172.462 190.908 170.387 190.91 167.464C190.91 164.567 190.25 162.513 188.931 161.302C187.611 160.09 185.322 159.484 182.064 159.484C178.805 159.484 176.516 160.09 175.198 161.302C173.88 162.513 173.221 164.567 173.221 167.464Z" fill="black"/>
<path d="M241.334 178.885H255.706C255.957 178.885 256.206 178.837 256.438 178.742C256.67 178.647 256.881 178.508 257.059 178.333C257.237 178.157 257.378 177.949 257.474 177.72C257.57 177.49 257.62 177.244 257.62 176.996V174.943H243.272C240.89 174.943 238.177 174.68 237.347 172.182C237.089 171.136 236.958 170.063 236.958 168.986H254.013C255.178 168.986 256.286 168.81 257.17 168.109C258.377 167.145 258.555 165.787 258.555 164.605C258.555 161.672 257.834 158.78 254.402 157.07C251.686 155.715 248.143 155.578 244.711 155.578C241.941 155.578 236.958 155.578 233.746 157.765C230.535 159.953 230.258 163.155 230.258 167.491C230.258 170.556 230.424 173.758 232.37 175.945C234.806 178.661 238.349 178.879 241.34 178.879L241.334 178.885ZM236.964 165.038C237.021 163.504 236.964 162.236 238.292 161.051C240.066 159.475 242.722 159.52 244.44 159.52C246.266 159.52 248.363 159.606 249.978 160.57C250.533 160.888 250.998 161.34 251.327 161.884C251.657 162.428 251.84 163.046 251.861 163.68C251.861 164.292 251.695 165.038 250.422 165.038H241.201C238.859 165.038 236.958 166.097 236.958 167.404L236.964 165.038Z" fill="black"/>
</g>
<g clip-path="url(#clip1_2931_90359)">
<path d="M57.6459 197.749C84.3156 197.749 105.936 176.371 105.936 150C105.936 123.629 84.3156 102.251 57.6459 102.251C30.9762 102.251 9.35614 123.629 9.35614 150C9.35614 176.371 30.9762 197.749 57.6459 197.749Z" fill="#EE0033"/>
<path d="M52.3818 120.084H45.8545C44.2003 120.084 42.6138 120.734 41.4441 121.89C40.2744 123.047 39.6173 124.615 39.6173 126.251V173.761C39.6173 174.571 39.7786 175.373 40.0921 176.121C40.4055 176.869 40.865 177.549 41.4441 178.122C42.0233 178.694 42.7109 179.149 43.4676 179.459C44.2244 179.768 45.0354 179.928 45.8545 179.928H52.3818C52.5865 179.928 52.7893 179.888 52.9785 179.811C53.1677 179.733 53.3396 179.62 53.4843 179.476C53.6291 179.333 53.744 179.163 53.8224 178.976C53.9007 178.789 53.9411 178.589 53.9411 178.386V173.773C53.9411 173.364 53.7768 172.972 53.4843 172.682C53.1919 172.393 52.7953 172.231 52.3818 172.231H42.2494V127.772H52.3818C52.7948 127.769 53.1897 127.604 53.4797 127.313C53.7698 127.022 53.9314 126.63 53.929 126.221V121.626C53.929 121.219 53.7664 120.828 53.4765 120.54C53.1867 120.251 52.7932 120.087 52.3818 120.084Z" fill="white"/>
<path d="M69.4373 120.084H62.91C62.497 120.085 62.1011 120.247 61.8094 120.536C61.5176 120.825 61.3537 121.217 61.3537 121.626V126.221C61.3537 126.63 61.5176 127.021 61.8094 127.31C62.1011 127.599 62.497 127.762 62.91 127.763H73.0454V172.237H62.91C62.497 172.238 62.1011 172.4 61.8094 172.689C61.5176 172.978 61.3537 173.37 61.3537 173.779V178.383C61.3537 178.792 61.5176 179.183 61.8094 179.472C62.1011 179.761 62.497 179.924 62.91 179.925H69.4373C70.2579 179.927 71.0707 179.768 71.8293 179.458C72.5878 179.149 73.2771 178.694 73.8576 178.121C74.4381 177.547 74.8985 176.866 75.2123 176.116C75.5262 175.367 75.6873 174.563 75.6865 173.752V126.251C75.6865 125.44 75.5248 124.637 75.2106 123.888C74.8964 123.139 74.4359 122.459 73.8554 121.886C73.275 121.313 72.586 120.859 71.8279 120.55C71.0697 120.241 70.2574 120.082 69.4373 120.084V120.084Z" fill="white"/>
</g>
<defs>
<clipPath id="clip0_2931_90359">
<rect width="168.712" height="95.4974" fill="white" transform="translate(122.233 102.251)"/>
</clipPath>
<clipPath id="clip1_2931_90359">
<rect width="96.5795" height="95.4974" fill="white" transform="translate(9.35614 102.251)"/>
</clipPath>
</defs>
</svg>
